<svg width="24" height="24" viewBox="0 0 24 24" fill="none" xmlns="http://www.w3.org/2000/svg">
<path d="M2 10.8889H22M17.5556 2V6.44444M6.44444 2V6.44444M17.5556 4.22222H6.44444C5.2657 4.22222 4.13524 4.69047 3.30175 5.52397C2.46825 6.35746 2 7.48793 2 8.66667V18.3889C2 19.5676 2.46825 20.6981 3.30175 21.5316C4.13524 22.3651 5.2657 22.8333 6.44444 22.8333H17.5556C18.7343 22.8333 19.8648 22.3651 20.6983 21.5316C21.5317 20.6981 22 19.5676 22 18.3889V8.66667C22 7.48793 21.5317 6.35746 20.6983 5.52397C19.8648 4.69047 18.7343 4.22222 17.5556 4.22222Z" stroke="#797B7F" stroke-width="1.5" stroke-linecap="round" stroke-linejoin="round"/>
</svg>
