<svg width="68" height="18" viewBox="0 0 68 18" fill="none" xmlns="http://www.w3.org/2000/svg">
<path d="M0.84375 4.16815C0.84375 3.27252 1.10301 2.5576 1.62153 2.02337C2.15577 1.48913 2.92568 1.22202 3.9313 1.22202H8.3387C12.6125 1.22202 14.7495 2.99754 14.7495 6.54862C14.7495 8.26131 14.231 9.5576 13.1939 10.4375C12.1569 11.3174 10.5935 11.7574 8.50369 11.7574L13.0761 16.4947C13.2175 16.6362 13.2882 16.8169 13.2882 17.0368C13.2882 17.3197 13.1704 17.5476 12.9347 17.7203C12.7461 17.8617 12.5497 17.9325 12.3454 17.9325C12.0312 17.9325 11.7326 17.7752 11.4498 17.4611L6.02894 11.7574H2.84712V16.9426C2.84712 17.2567 2.75285 17.5082 2.56429 17.6968C2.39146 17.8695 2.1479 17.956 1.83365 17.956C1.51941 17.956 1.27585 17.8695 1.10301 17.6968C0.930171 17.5082 0.84375 17.2567 0.84375 16.9426V4.16815ZM8.45655 10.1311C9.90211 10.1311 10.9706 9.864 11.6619 9.32976C12.369 8.77983 12.7225 7.85276 12.7225 6.54862C12.7225 5.22875 12.369 4.28599 11.6619 3.72033C10.9549 3.13896 9.88641 2.84828 8.45655 2.84828H4.04914C3.68776 2.84828 3.39706 2.96613 3.17709 3.20182C2.95712 3.43751 2.84712 3.75962 2.84712 4.16815V10.1311H8.45655ZM25.0117 17.956C23.4245 17.956 21.9947 17.6103 20.722 16.919C19.4493 16.2119 18.4437 15.2142 17.7052 13.9257C16.9824 12.6373 16.621 11.1524 16.621 9.47118C16.621 7.77421 16.9824 6.28936 17.7052 5.01663C18.4437 3.72818 19.4493 2.73828 20.722 2.04693C21.9947 1.33986 23.4245 0.986328 25.0117 0.986328C26.5986 0.986328 28.0285 1.33986 29.3012 2.04693C30.574 2.73828 31.5716 3.72818 32.2945 5.01663C33.0329 6.28936 33.4022 7.77421 33.4022 9.47118C33.4022 11.1524 33.0329 12.6373 32.2945 13.9257C31.5716 15.2142 30.574 16.2119 29.3012 16.919C28.0285 17.6103 26.5986 17.956 25.0117 17.956ZM25.0117 16.4476C26.2844 16.4476 27.4157 16.1726 28.4056 15.6227C29.4111 15.0728 30.1969 14.2793 30.7625 13.2422C31.3437 12.1895 31.6346 10.9325 31.6346 9.47118C31.6346 7.99418 31.3359 6.72932 30.7389 5.67656C30.1575 4.62381 29.3561 3.83033 28.3349 3.29609C27.3292 2.76185 26.2057 2.49475 24.9645 2.49475C23.7074 2.49475 22.576 2.76973 21.5705 3.31966C20.5806 3.8696 19.8028 4.67094 19.2372 5.7237C18.6715 6.77646 18.3887 8.02562 18.3887 9.47118C18.3887 10.9325 18.6715 12.1895 19.2372 13.2422C19.8185 14.2793 20.6042 15.0728 21.5941 15.6227C22.5996 16.1726 23.7389 16.4476 25.0117 16.4476ZM44.3456 17.956C42.7587 17.956 41.3287 17.6103 40.056 16.919C38.7833 16.2119 37.7776 15.2142 37.0392 13.9257C36.3163 12.6373 35.955 11.1524 35.955 9.47118C35.955 7.77421 36.3163 6.28936 37.0392 5.01663C37.7776 3.72818 38.7833 2.73828 40.056 2.04693C41.3287 1.33986 42.7587 0.986328 44.3456 0.986328C45.9325 0.986328 47.3624 1.33986 48.6351 2.04693C49.9079 2.73828 50.9055 3.72818 51.6284 5.01663C52.3668 6.28936 52.7361 7.77421 52.7361 9.47118C52.7361 11.1524 52.3668 12.6373 51.6284 13.9257C50.9055 15.2142 49.9079 16.2119 48.6351 16.919C47.3624 17.6103 45.9325 17.956 44.3456 17.956ZM44.3456 16.4476C45.6183 16.4476 46.7496 16.1726 47.7395 15.6227C48.7452 15.0728 49.5308 14.2793 50.0964 13.2422C50.6779 12.1895 50.9685 10.9325 50.9685 9.47118C50.9685 7.99418 50.6698 6.72932 50.0728 5.67656C49.4914 4.62381 48.6901 3.83033 47.6688 3.29609C46.6631 2.76185 45.5398 2.49475 44.2984 2.49475C43.0415 2.49475 41.9102 2.76973 40.9045 3.31966C39.9146 3.8696 39.1368 4.67094 38.5712 5.7237C38.0055 6.77646 37.7227 8.02562 37.7227 9.47118C37.7227 10.9325 38.0055 12.1895 38.5712 13.2422C39.1526 14.2793 39.9382 15.0728 40.9281 15.6227C41.9338 16.1726 43.0728 16.4476 44.3456 16.4476ZM60.6996 17.956C60.4168 17.956 60.1969 17.8775 60.0397 17.7203C59.8983 17.5476 59.8276 17.3119 59.8276 17.0133V2.6833H54.4303C54.1475 2.6833 53.9195 2.62831 53.7468 2.51831C53.5896 2.39262 53.5111 2.21192 53.5111 1.97623C53.5111 1.47343 53.8175 1.22202 54.4303 1.22202H67.0161C67.6289 1.22202 67.9353 1.47343 67.9353 1.97623C67.9353 2.1962 67.8568 2.36905 67.6996 2.49475C67.5424 2.62044 67.3148 2.6833 67.0161 2.6833H61.6188V17.0133C61.6188 17.3119 61.5323 17.5476 61.3596 17.7203C61.2024 17.8775 60.9825 17.956 60.6996 17.956Z" fill="url(#paint0_linear_3424_4145)"/>
<defs>
<linearGradient id="paint0_linear_3424_4145" x1="69.0032" y1="8.9998" x2="-0.99675" y2="8.9998" gradientUnits="userSpaceOnUse">
<stop stop-color="#D5A0FF"/>
<stop offset="0.76" stop-color="#9CE6FE"/>
</linearGradient>
</defs>
</svg>
